<svg width="511" height="337" viewBox="0 0 511 337" fill="none" xmlns="http://www.w3.org/2000/svg">
<path d="M1 227V131.5V114H486V223L1 227Z" fill="#05113A"/>
<path d="M445.557 42.6201L510.229 113.74H224.719L289.391 42.6201H445.557Z" fill="#05113A"/>
<mask id="mask0_887_955" style="mask-type:luminance" maskUnits="userSpaceOnUse" x="0" y="0" width="403" height="131">
<path d="M0 0H402.401V130.031H0V0Z" fill="white"/>
</mask>
<g mask="url(#mask0_887_955)">
<path d="M402.339 129.932H0V0.0361328H284.224L322.943 42.6195L375.51 100.427L376.604 101.63L387.615 113.739L402.339 129.932Z" fill="#05113A"/>
</g>
<path d="M445.557 293.031L510.229 221.911H224.719L289.391 293.031H445.557Z" fill="#05113A"/>
<path d="M402.339 206.135H0V336.031H284.224L322.943 293.448L375.51 235.64L376.604 234.437L387.615 222.328L402.339 206.135Z" fill="#05113A"/>
<path d="M390.047 115C389.625 115 389.208 115 388.797 115.042C387.729 115.104 386.672 115.25 385.63 115.474C384.583 115.698 383.562 116.005 382.562 116.385C381.562 116.766 380.599 117.219 379.667 117.745C378.74 118.271 377.854 118.865 377.016 119.526C376.177 120.188 375.391 120.911 374.661 121.693C373.932 122.474 373.266 123.302 372.661 124.188C372.057 125.068 371.526 125.99 371.062 126.953C370.599 127.917 370.208 128.911 369.896 129.932C369.396 131.578 369.104 133.255 369.021 134.974C369 135.333 368.99 135.693 368.99 136.052C368.99 136.292 368.99 136.531 368.99 136.771C369.036 138.141 369.219 139.495 369.531 140.833C369.838 142.167 370.281 143.464 370.844 144.714C371.406 145.964 372.088 147.146 372.885 148.266C373.682 149.38 374.578 150.411 375.573 151.354C376.573 152.297 377.651 153.13 378.812 153.865C379.974 154.594 381.193 155.208 382.474 155.698C383.755 156.193 385.073 156.552 386.422 156.792C387.776 157.026 389.135 157.125 390.51 157.094C391.88 157.063 393.234 156.901 394.578 156.604C395.917 156.307 397.213 155.885 398.469 155.333C399.729 154.781 400.922 154.115 402.047 153.333C403.172 152.552 404.213 151.667 405.167 150.677C406.12 149.693 406.969 148.62 407.713 147.469C408.458 146.318 409.083 145.104 409.588 143.828C410.094 142.552 410.474 141.24 410.724 139.891C410.974 138.542 411.094 137.182 411.078 135.807C411.062 134.438 410.911 133.078 410.63 131.74C410.349 130.396 409.943 129.094 409.406 127.828C408.87 126.563 408.219 125.365 407.448 124.229C406.677 123.094 405.802 122.047 404.828 121.083C403.849 120.115 402.792 119.255 401.646 118.5C400.505 117.74 399.297 117.099 398.026 116.578C396.755 116.057 395.448 115.667 394.104 115.401C392.76 115.135 391.401 115 390.026 115H390.047ZM390.047 155.302C388.786 155.302 387.531 155.177 386.292 154.932C385.052 154.688 383.849 154.318 382.682 153.839C381.516 153.354 380.406 152.76 379.354 152.057C378.302 151.354 377.328 150.557 376.437 149.661C375.542 148.771 374.745 147.797 374.042 146.745C373.338 145.693 372.745 144.583 372.266 143.417C371.781 142.25 371.417 141.047 371.167 139.807C370.922 138.568 370.797 137.313 370.797 136.052C370.797 134.786 370.922 133.536 371.167 132.297C371.417 131.057 371.781 129.854 372.266 128.682C372.745 127.516 373.338 126.406 374.042 125.354C374.745 124.307 375.542 123.333 376.437 122.438C377.328 121.547 378.302 120.745 379.354 120.047C380.406 119.344 381.516 118.75 382.682 118.266C383.849 117.781 385.052 117.417 386.292 117.172C387.531 116.922 388.786 116.802 390.047 116.802H390.406C391.672 116.813 392.922 116.948 394.156 117.208C395.396 117.469 396.594 117.844 397.755 118.339C398.922 118.833 400.021 119.438 401.068 120.151C402.109 120.859 403.073 121.667 403.958 122.573C404.844 123.474 405.63 124.453 406.323 125.51C407.016 126.568 407.599 127.682 408.068 128.854C408.542 130.026 408.896 131.234 409.13 132.474C409.365 133.714 409.479 134.969 409.463 136.229C409.453 137.495 409.318 138.745 409.062 139.979C408.802 141.219 408.427 142.417 407.932 143.583C407.437 144.745 406.833 145.849 406.125 146.891C405.411 147.938 404.604 148.901 403.703 149.786C402.802 150.672 401.823 151.458 400.766 152.151C399.708 152.844 398.594 153.427 397.427 153.901C396.255 154.375 395.047 154.729 393.807 154.964C392.562 155.198 391.312 155.312 390.047 155.302Z" fill="#59CEF7"/>
<path d="M88.5156 134.974H369.896V136.771H88.5156V134.974Z" fill="#59CEF7"/>
<path d="M68.9062 42.495C68.9062 43.8179 68.776 45.1304 68.5208 46.4272C68.2604 47.7241 67.8802 48.9845 67.375 50.2085C66.8646 51.4325 66.2448 52.5939 65.5104 53.6929C64.776 54.7918 63.9427 55.8075 63.0052 56.745C62.0677 57.6825 61.0521 58.5158 59.9531 59.2502C58.849 59.9845 57.6927 60.6095 56.4688 61.1147C55.2448 61.62 53.9844 62.0002 52.6875 62.2606C51.3906 62.5158 50.0781 62.646 48.7552 62.646C47.4323 62.646 46.125 62.5158 44.8281 62.2606C43.526 62.0002 42.2656 61.62 41.0469 61.1147C39.8229 60.6095 38.6615 59.9845 37.5625 59.2502C36.4635 58.5158 35.4427 57.6825 34.5104 56.745C33.5729 55.8075 32.7396 54.7918 32.0052 53.6929C31.2656 52.5939 30.6458 51.4325 30.1406 50.2085C29.6354 48.9845 29.25 47.7241 28.9948 46.4272C28.7344 45.1304 28.6094 43.8179 28.6094 42.495C28.6094 41.172 28.7344 39.8647 28.9948 38.5679C29.25 37.271 29.6354 36.0106 30.1406 34.7866C30.6458 33.5627 31.2656 32.4012 32.0052 31.3022C32.7396 30.2033 33.5729 29.1825 34.5104 28.2502C35.4427 27.3127 36.4635 26.4793 37.5625 25.745C38.6615 25.0106 39.8229 24.3856 41.0469 23.8804C42.2656 23.3752 43.526 22.995 44.8281 22.7345C46.125 22.4741 47.4323 22.3491 48.7552 22.3491C50.0781 22.3491 51.3906 22.4741 52.6875 22.7345C53.9844 22.995 55.2448 23.3752 56.4688 23.8804C57.6927 24.3856 58.849 25.0106 59.9531 25.745C61.0521 26.4793 62.0677 27.3127 63.0052 28.2502C63.9427 29.1825 64.776 30.2033 65.5104 31.3022C66.2448 32.4012 66.8646 33.5627 67.375 34.7866C67.8802 36.0106 68.2604 37.271 68.5208 38.5679C68.776 39.8647 68.9062 41.172 68.9062 42.495Z" fill="#59CEF7"/>
<path d="M487.5 172H485H483.5L435.87 113.74L424.875 100.427L418.781 93.0524H288.578L286.604 90.9847L265.49 68.9066L262.568 65.8545L241.266 43.5785L68.8698 43.7399H48.7552V41.2191H68.8698L242.339 41.0576L264.385 64.1097L267.188 67.042C274.266 74.4482 281.339 81.8441 288.417 89.2399L289.651 90.5316H419.958L428.13 100.427L439.125 113.74L487.5 172Z" fill="#59CEF7"/>
<path d="M262.594 93.2345H275.547L233.604 48.2554H220.651L262.594 93.2345Z" fill="#59CEF7"/>
<path d="M235.245 93.2345H248.198L206.26 48.2554H193.302L235.245 93.2345Z" fill="#59CEF7"/>
<path d="M207.901 93.2345H220.854L178.911 48.2554H165.958L207.901 93.2345Z" fill="#59CEF7"/>
<path d="M180.552 93.2345H193.505L151.568 48.2554H138.609L180.552 93.2345Z" fill="#59CEF7"/>
<path d="M390.172 227.948C389.75 227.948 389.333 227.948 388.922 227.907C387.854 227.844 386.797 227.698 385.755 227.474C384.708 227.25 383.687 226.943 382.687 226.563C381.687 226.183 380.724 225.729 379.792 225.203C378.865 224.677 377.979 224.084 377.141 223.422C376.302 222.761 375.516 222.037 374.786 221.256C374.057 220.474 373.391 219.646 372.786 218.761C372.182 217.881 371.651 216.959 371.187 215.995C370.724 215.032 370.333 214.037 370.021 213.016C369.521 211.37 369.229 209.693 369.146 207.974C369.125 207.615 369.115 207.256 369.115 206.896C369.115 206.657 369.115 206.417 369.115 206.177C369.161 204.808 369.344 203.453 369.656 202.115C369.963 200.782 370.406 199.485 370.969 198.235C371.531 196.985 372.213 195.802 373.01 194.683C373.807 193.568 374.703 192.537 375.698 191.594C376.698 190.651 377.776 189.818 378.937 189.084C380.099 188.354 381.318 187.74 382.599 187.25C383.88 186.756 385.198 186.396 386.547 186.157C387.901 185.922 389.26 185.823 390.635 185.854C392.005 185.886 393.359 186.047 394.703 186.344C396.042 186.641 397.338 187.063 398.594 187.615C399.854 188.167 401.047 188.834 402.172 189.615C403.297 190.396 404.338 191.282 405.292 192.271C406.245 193.256 407.094 194.328 407.838 195.479C408.583 196.631 409.208 197.844 409.713 199.12C410.219 200.396 410.599 201.709 410.849 203.058C411.099 204.407 411.219 205.766 411.203 207.141C411.187 208.511 411.036 209.87 410.755 211.209C410.474 212.552 410.068 213.854 409.531 215.12C408.995 216.386 408.344 217.584 407.573 218.719C406.802 219.854 405.927 220.901 404.953 221.865C403.974 222.834 402.917 223.693 401.771 224.448C400.63 225.209 399.422 225.849 398.151 226.37C396.88 226.891 395.573 227.282 394.229 227.547C392.885 227.813 391.526 227.948 390.151 227.948H390.172ZM390.172 187.646C388.911 187.646 387.656 187.771 386.417 188.016C385.177 188.261 383.974 188.631 382.807 189.11C381.641 189.594 380.531 190.188 379.479 190.891C378.427 191.594 377.453 192.391 376.562 193.287C375.667 194.177 374.87 195.151 374.167 196.203C373.463 197.256 372.87 198.365 372.391 199.532C371.906 200.698 371.542 201.901 371.292 203.141C371.047 204.381 370.922 205.636 370.922 206.896C370.922 208.162 371.047 209.412 371.292 210.651C371.542 211.891 371.906 213.094 372.391 214.266C372.87 215.433 373.463 216.542 374.167 217.594C374.87 218.641 375.667 219.615 376.562 220.511C377.453 221.401 378.427 222.203 379.479 222.901C380.531 223.604 381.641 224.198 382.807 224.683C383.974 225.167 385.177 225.532 386.417 225.776C387.656 226.026 388.911 226.146 390.172 226.146H390.531C391.797 226.136 393.047 226 394.281 225.74C395.521 225.479 396.719 225.104 397.88 224.61C399.047 224.115 400.146 223.511 401.193 222.797C402.234 222.089 403.198 221.282 404.083 220.375C404.969 219.474 405.755 218.495 406.448 217.438C407.141 216.381 407.724 215.266 408.193 214.094C408.667 212.922 409.021 211.714 409.255 210.474C409.49 209.235 409.604 207.979 409.588 206.719C409.578 205.453 409.443 204.203 409.187 202.969C408.927 201.729 408.552 200.532 408.057 199.365C407.562 198.203 406.958 197.099 406.25 196.058C405.536 195.011 404.729 194.047 403.828 193.162C402.927 192.276 401.948 191.49 400.891 190.797C399.833 190.104 398.719 189.521 397.552 189.047C396.38 188.573 395.172 188.219 393.932 187.985C392.687 187.75 391.437 187.636 390.172 187.646Z" fill="#59CEF7"/>
<path d="M88.6406 207.974H370.021V206.177H88.6406V207.974Z" fill="#59CEF7"/>
<path d="M69.0312 300.453C69.0312 299.13 68.901 297.818 68.6458 296.521C68.3854 295.224 68.0052 293.964 67.5 292.74C66.9896 291.516 66.3698 290.354 65.6354 289.255C64.901 288.156 64.0677 287.141 63.1302 286.203C62.1927 285.266 61.1771 284.432 60.0781 283.698C58.974 282.964 57.8177 282.339 56.5938 281.833C55.3698 281.328 54.1094 280.948 52.8125 280.688C51.5156 280.432 50.2031 280.302 48.8802 280.302C47.5573 280.302 46.25 280.432 44.9531 280.688C43.651 280.948 42.3906 281.328 41.1719 281.833C39.9479 282.339 38.7865 282.964 37.6875 283.698C36.5885 284.432 35.5677 285.266 34.6354 286.203C33.6979 287.141 32.8646 288.156 32.1302 289.255C31.3906 290.354 30.7708 291.516 30.2656 292.74C29.7604 293.964 29.375 295.224 29.1198 296.521C28.8594 297.818 28.7344 299.13 28.7344 300.453C28.7344 301.776 28.8594 303.083 29.1198 304.38C29.375 305.677 29.7604 306.938 30.2656 308.162C30.7708 309.386 31.3906 310.547 32.1302 311.646C32.8646 312.745 33.6979 313.766 34.6354 314.698C35.5677 315.636 36.5885 316.469 37.6875 317.203C38.7865 317.938 39.9479 318.563 41.1719 319.068C42.3906 319.573 43.651 319.953 44.9531 320.214C46.25 320.474 47.5573 320.599 48.8802 320.599C50.2031 320.599 51.5156 320.474 52.8125 320.214C54.1094 319.953 55.3698 319.573 56.5938 319.068C57.8177 318.563 58.974 317.938 60.0781 317.203C61.1771 316.469 62.1927 315.636 63.1302 314.698C64.0677 313.766 64.901 312.745 65.6354 311.646C66.3698 310.547 66.9896 309.386 67.5 308.162C68.0052 306.938 68.3854 305.677 68.6458 304.38C68.901 303.083 69.0312 301.776 69.0312 300.453Z" fill="#59CEF7"/>
<path d="M487.23 171.635H485.167H483.531L435.995 229.208L425 242.521L418.906 249.896H288.703L286.729 251.964L265.615 274.042L262.693 277.094L241.391 299.37L68.9948 299.208H48.8802V301.729H68.9948L242.464 301.891L264.51 278.839L267.313 275.906C274.391 268.5 281.464 261.104 288.542 253.708L289.776 252.417H420.083L428.255 242.521L439.25 229.208L487.23 171.635Z" fill="#59CEF7"/>
<path d="M262.719 249.714H275.672L233.729 294.693H220.776L262.719 249.714Z" fill="#59CEF7"/>
<path d="M235.37 249.714H248.323L206.385 294.693H193.427L235.37 249.714Z" fill="#59CEF7"/>
<path d="M208.026 249.714H220.979L179.036 294.693H166.083L208.026 249.714Z" fill="#59CEF7"/>
<path d="M180.677 249.714H193.63L151.693 294.693H138.734L180.677 249.714Z" fill="#59CEF7"/>
</svg>
