<svg width="219" height="59" viewBox="0 0 219 59" fill="none" xmlns="http://www.w3.org/2000/svg">
<g clip-path="url(#clip0_512_4448)">
<path d="M0.0932617 34.3092C5.66349 34.3092 6.26336 33.7093 6.26336 28.5676V10.0573C6.26336 4.91556 5.66349 4.31569 0.0932617 4.31569V3.88721H22.8883C31.8864 3.88721 37.8851 8.0863 37.8851 14.4278C37.8851 20.5122 31.2008 25.3968 22.8883 25.3968H21.7743L14.2331 24.3685V23.8543H21.6029C28.0301 23.8543 33.2575 19.6552 33.2575 14.4278C33.2575 9.02895 28.63 5.42973 21.6029 5.42973H9.3484V5.51543C10.2054 6.45808 10.4625 7.82921 10.4625 10.143V28.5676C10.4625 33.7093 11.0623 34.3092 16.6325 34.3092V34.7377H0.0932617V34.3092Z" fill="#E2B34D"/>
<path d="M41.2251 34.3107C46.7953 34.3107 47.3952 33.7108 47.3952 28.5691V10.0588C47.3952 4.91703 46.7953 4.31716 41.2251 4.31716V3.88868L49.8804 3.63159C50.823 4.57425 51.5086 6.03108 51.5086 8.34486V11.7727C53.7367 6.71664 59.0498 3.5459 65.9912 3.5459C73.1039 3.5459 77.7315 6.97373 77.7315 12.2869C77.7315 17.3429 72.4184 21.4563 65.5627 21.8848L65.477 22.2276C67.6194 22.5704 69.5904 25.1412 71.1329 27.8835C72.8468 30.7972 74.7321 33.4537 77.1316 33.4537C80.2167 33.4537 82.0163 31.3113 82.0163 27.7121H82.3591C82.3591 33.0252 80.0453 35.8532 75.7605 35.8532C71.6471 35.8532 69.1619 32.5111 67.0195 28.9975C64.8771 25.5697 62.9918 22.0562 60.2496 21.7134L55.0221 21.1135V20.6851H63.3346C68.7334 20.6851 73.1039 16.9144 73.1039 12.2869C73.1039 8.08777 69.8475 5.34551 64.9628 5.34551C57.5073 5.34551 51.5086 10.9157 51.5086 17.8571V29.5117C51.5086 32.9395 52.8797 34.225 56.6503 34.225V34.6535H41.2251V34.3107Z" fill="#E2B34D"/>
<path d="M82.8801 34.4814L84.337 34.31C86.1366 34.0529 87.3363 32.5104 88.279 30.6251L102.762 1.91699H102.933C102.933 3.45952 103.876 3.97369 106.361 3.97369C106.446 4.57356 106.532 5.43052 107.046 6.45887L118.701 31.1393C119.558 32.9389 120.158 34.0529 122.129 34.31L123.586 34.4814V34.7385H111.16V34.4814L116.044 33.8815V33.7958C115.359 33.5387 114.845 32.6818 114.416 31.8248L102.933 7.48722C102.59 6.80165 102.59 5.859 102.59 5.25913H102.247C102.247 5.68761 102.076 6.37317 101.562 7.40152L92.6494 24.7978C95.306 22.1412 98.9909 20.7701 103.104 20.7701H107.303L107.989 22.2269H102.847C97.8769 22.2269 93.335 23.7694 91.1926 27.54L89.8215 30.2823C89.5644 30.7965 89.4787 31.3106 89.4787 31.7391C89.4787 33.0246 90.3357 34.0529 91.7925 34.2243L94.2777 34.4814V34.7385H82.8801V34.4814Z" fill="#E2B34D"/>
<path d="M124.523 34.3092C130.093 34.3092 130.693 33.7093 130.693 28.5676V10.0573C130.693 4.91556 130.093 4.31569 124.523 4.31569V3.88721H141.062V4.31569C135.492 4.31569 134.892 4.91556 134.892 10.0573V28.5676C134.892 33.7093 135.492 34.3092 141.062 34.3092V34.7377H124.523V34.3092Z" fill="#E2B34D"/>
<path d="M145.945 21.1983L146.631 22.9979C148.602 28.3968 155.286 33.4528 162.485 33.4528C170.626 33.4528 176.11 30.9676 176.11 27.2827C176.11 21.6268 168.997 21.284 161.885 20.5985C154.772 19.9129 147.659 18.8845 147.659 12.286C147.659 7.14423 153.744 3.71639 162.827 3.71639C166.512 3.71639 170.283 4.31627 173.454 6.45866C173.882 6.71575 174.568 7.6584 174.653 7.82979L174.91 7.7441C174.825 7.22992 174.739 6.63005 174.739 5.6874V0.631348H175.339L176.025 15.1139H175.767L175.425 14.257C173.625 9.5437 168.74 5.17322 162.656 5.17322C156.057 5.17322 151.601 7.48701 151.601 11.0005C151.601 16.1423 158.8 16.3137 165.912 17.0849C173.111 17.8562 180.224 19.2273 180.224 26.4258C180.224 31.5675 173.025 34.9953 162.313 34.9953C157.686 34.9953 152.544 34.0527 148.602 30.9676C148.173 30.6249 147.402 29.5965 147.145 28.7396L146.974 28.8253C147.059 29.3394 147.059 31.4818 147.059 32.3388V37.3091H146.545L145.774 21.284H145.945V21.1983Z" fill="#E2B34D"/>
<path d="M184.251 34.31C189.821 34.31 190.421 33.7102 190.421 28.5684V10.0581C190.421 4.9164 189.821 4.31653 184.251 4.31653V3.88805H213.559C214.416 3.88805 214.588 3.97374 214.93 4.31653H215.016L215.102 0.0317383H215.53L216.301 13.8288H216.044L215.444 12.2862C213.473 7.40157 211.16 5.43057 205.847 5.43057H193.421V5.51627C194.278 6.45892 194.535 7.91575 194.535 10.2295V18.542H198.734C203.19 18.542 204.561 17.9422 205.675 13.0575L206.018 11.7721H206.275V26.7688H206.018L205.675 25.4834C204.561 20.6844 203.19 19.9988 198.734 19.9988H194.535V28.4827C194.535 30.7965 194.363 32.2533 193.421 33.196V33.2817H208.075C213.302 33.2817 215.702 31.225 217.673 26.426L218.272 24.8835H218.53L217.844 38.4234H217.501L217.158 34.3957H217.073C216.73 34.7385 216.559 34.8242 215.702 34.8242H184.166V34.31H184.251Z" fill="#E2B34D"/>
</g>
<defs>
<clipPath id="clip0_512_4448">
<rect width="218.439" height="58.1874" fill="white" transform="translate(0.0915527 0.0336914)"/>
</clipPath>
</defs>
</svg>
